<mxfile host="app.diagrams.net" modified="2024-03-19T19:04:17.858Z" agent="Mozilla/5.0 (Windows NT 10.0; Win64; x64) AppleWebKit/537.36 (KHTML, like Gecko) Chrome/122.0.0.0 Safari/537.36" etag="CyL12pMioAVwUgE6DNKv" version="24.0.7" type="device">
  <diagram id="SjyvnTYL4WLvGiceQ5JA" name="Strona-1">
    <mxGraphModel dx="1687" dy="918" grid="1" gridSize="10" guides="1" tooltips="1" connect="1" arrows="1" fold="1" page="1" pageScale="1" pageWidth="827" pageHeight="1169" math="0" shadow="0">
      <root>
        <mxCell id="0" />
        <mxCell id="1" parent="0" />
        <mxCell id="MYHG3JWobE4DRymCTWOl-1" value="" style="ellipse;html=1;shape=endState;fillColor=#000000;strokeColor=#ff0000;" parent="1" vertex="1">
          <mxGeometry x="250" y="800" width="30" height="30" as="geometry" />
        </mxCell>
        <mxCell id="MYHG3JWobE4DRymCTWOl-2" value="" style="ellipse;html=1;shape=startState;fillColor=#000000;strokeColor=#ff0000;" parent="1" vertex="1">
          <mxGeometry x="250" y="40" width="30" height="30" as="geometry" />
        </mxCell>
        <mxCell id="MYHG3JWobE4DRymCTWOl-3" value="" style="edgeStyle=orthogonalEdgeStyle;html=1;verticalAlign=bottom;endArrow=open;endSize=8;strokeColor=#ff0000;rounded=0;" parent="1" source="MYHG3JWobE4DRymCTWOl-2" edge="1">
          <mxGeometry relative="1" as="geometry">
            <mxPoint x="265" y="130" as="targetPoint" />
          </mxGeometry>
        </mxCell>
        <mxCell id="MYHG3JWobE4DRymCTWOl-18" style="edgeStyle=orthogonalEdgeStyle;rounded=0;orthogonalLoop=1;jettySize=auto;html=1;exitX=0.5;exitY=1;exitDx=0;exitDy=0;" parent="1" source="MYHG3JWobE4DRymCTWOl-5" target="MYHG3JWobE4DRymCTWOl-17" edge="1">
          <mxGeometry relative="1" as="geometry" />
        </mxCell>
        <mxCell id="MYHG3JWobE4DRymCTWOl-21" value="Авторизация" style="edgeLabel;html=1;align=center;verticalAlign=middle;resizable=0;points=[];" parent="MYHG3JWobE4DRymCTWOl-18" vertex="1" connectable="0">
          <mxGeometry x="-0.1678" relative="1" as="geometry">
            <mxPoint as="offset" />
          </mxGeometry>
        </mxCell>
        <mxCell id="MYHG3JWobE4DRymCTWOl-5" value="Ожидание создания сессии" style="rounded=1;whiteSpace=wrap;html=1;arcSize=40;fontColor=#000000;fillColor=#ffffc0;strokeColor=#ff0000;" parent="1" vertex="1">
          <mxGeometry x="205" y="130" width="120" height="40" as="geometry" />
        </mxCell>
        <mxCell id="MYHG3JWobE4DRymCTWOl-7" value="Товар Добавлен" style="rounded=1;whiteSpace=wrap;html=1;arcSize=40;fontColor=#000000;fillColor=#ffffc0;strokeColor=#ff0000;" parent="1" vertex="1">
          <mxGeometry x="850" y="410" width="120" height="40" as="geometry" />
        </mxCell>
        <mxCell id="MYHG3JWobE4DRymCTWOl-8" value="Товар Удален" style="rounded=1;whiteSpace=wrap;html=1;arcSize=40;fontColor=#000000;fillColor=#ffffc0;strokeColor=#ff0000;" parent="1" vertex="1">
          <mxGeometry x="850" y="480" width="120" height="40" as="geometry" />
        </mxCell>
        <mxCell id="MYHG3JWobE4DRymCTWOl-29" style="edgeStyle=orthogonalEdgeStyle;rounded=0;orthogonalLoop=1;jettySize=auto;html=1;exitX=1;exitY=0.5;exitDx=0;exitDy=0;" parent="1" source="MYHG3JWobE4DRymCTWOl-9" edge="1">
          <mxGeometry relative="1" as="geometry">
            <mxPoint x="480" y="430" as="targetPoint" />
          </mxGeometry>
        </mxCell>
        <mxCell id="MYHG3JWobE4DRymCTWOl-31" value="Добавить товар в корзину" style="edgeLabel;html=1;align=center;verticalAlign=middle;resizable=0;points=[];" parent="MYHG3JWobE4DRymCTWOl-29" vertex="1" connectable="0">
          <mxGeometry x="-0.0631" y="1" relative="1" as="geometry">
            <mxPoint y="-9" as="offset" />
          </mxGeometry>
        </mxCell>
        <mxCell id="MYHG3JWobE4DRymCTWOl-30" style="edgeStyle=orthogonalEdgeStyle;rounded=0;orthogonalLoop=1;jettySize=auto;html=1;exitX=1;exitY=0.5;exitDx=0;exitDy=0;entryX=0;entryY=0.5;entryDx=0;entryDy=0;" parent="1" source="MYHG3JWobE4DRymCTWOl-9" target="MYHG3JWobE4DRymCTWOl-10" edge="1">
          <mxGeometry relative="1" as="geometry">
            <mxPoint x="460" y="500" as="targetPoint" />
            <Array as="points">
              <mxPoint x="325" y="500" />
            </Array>
          </mxGeometry>
        </mxCell>
        <mxCell id="MYHG3JWobE4DRymCTWOl-39" style="edgeStyle=orthogonalEdgeStyle;rounded=0;orthogonalLoop=1;jettySize=auto;html=1;exitX=0.5;exitY=1;exitDx=0;exitDy=0;" parent="1" source="MYHG3JWobE4DRymCTWOl-9" target="MYHG3JWobE4DRymCTWOl-12" edge="1">
          <mxGeometry relative="1" as="geometry" />
        </mxCell>
        <mxCell id="MYHG3JWobE4DRymCTWOl-9" value="Ожидание выбора действия" style="rounded=1;whiteSpace=wrap;html=1;arcSize=40;fontColor=#000000;fillColor=#ffffc0;strokeColor=#ff0000;" parent="1" vertex="1">
          <mxGeometry x="205" y="410" width="120" height="40" as="geometry" />
        </mxCell>
        <mxCell id="MYHG3JWobE4DRymCTWOl-35" style="edgeStyle=orthogonalEdgeStyle;rounded=0;orthogonalLoop=1;jettySize=auto;html=1;exitX=0.5;exitY=1;exitDx=0;exitDy=0;entryX=0.75;entryY=1;entryDx=0;entryDy=0;" parent="1" source="MYHG3JWobE4DRymCTWOl-10" target="MYHG3JWobE4DRymCTWOl-9" edge="1">
          <mxGeometry relative="1" as="geometry">
            <Array as="points">
              <mxPoint x="540" y="530" />
              <mxPoint x="295" y="530" />
            </Array>
          </mxGeometry>
        </mxCell>
        <mxCell id="MYHG3JWobE4DRymCTWOl-42" style="edgeStyle=orthogonalEdgeStyle;rounded=0;orthogonalLoop=1;jettySize=auto;html=1;exitX=1;exitY=0.5;exitDx=0;exitDy=0;entryX=0;entryY=0.5;entryDx=0;entryDy=0;" parent="1" source="MYHG3JWobE4DRymCTWOl-10" target="MYHG3JWobE4DRymCTWOl-8" edge="1">
          <mxGeometry relative="1" as="geometry" />
        </mxCell>
        <mxCell id="MYHG3JWobE4DRymCTWOl-45" value="[Данный товар есть в корзине]" style="edgeLabel;html=1;align=center;verticalAlign=middle;resizable=0;points=[];" parent="MYHG3JWobE4DRymCTWOl-42" vertex="1" connectable="0">
          <mxGeometry x="-0.2813" y="1" relative="1" as="geometry">
            <mxPoint x="20" y="-9" as="offset" />
          </mxGeometry>
        </mxCell>
        <mxCell id="MYHG3JWobE4DRymCTWOl-10" value="Обработка запроса на удаление" style="rounded=1;whiteSpace=wrap;html=1;arcSize=40;fontColor=#000000;fillColor=#ffffc0;strokeColor=#ff0000;" parent="1" vertex="1">
          <mxGeometry x="480" y="480" width="120" height="40" as="geometry" />
        </mxCell>
        <mxCell id="MYHG3JWobE4DRymCTWOl-34" style="edgeStyle=orthogonalEdgeStyle;rounded=0;orthogonalLoop=1;jettySize=auto;html=1;exitX=0.5;exitY=0;exitDx=0;exitDy=0;entryX=0.75;entryY=0;entryDx=0;entryDy=0;" parent="1" source="MYHG3JWobE4DRymCTWOl-11" target="MYHG3JWobE4DRymCTWOl-9" edge="1">
          <mxGeometry relative="1" as="geometry" />
        </mxCell>
        <mxCell id="MYHG3JWobE4DRymCTWOl-40" value="[Превышено допустимое количество]" style="edgeLabel;html=1;align=center;verticalAlign=middle;resizable=0;points=[];" parent="MYHG3JWobE4DRymCTWOl-34" vertex="1" connectable="0">
          <mxGeometry x="0.0939" y="-2" relative="1" as="geometry">
            <mxPoint as="offset" />
          </mxGeometry>
        </mxCell>
        <mxCell id="MYHG3JWobE4DRymCTWOl-43" style="edgeStyle=orthogonalEdgeStyle;rounded=0;orthogonalLoop=1;jettySize=auto;html=1;entryX=0;entryY=0.5;entryDx=0;entryDy=0;exitX=1;exitY=0.5;exitDx=0;exitDy=0;" parent="1" source="MYHG3JWobE4DRymCTWOl-11" target="MYHG3JWobE4DRymCTWOl-7" edge="1">
          <mxGeometry relative="1" as="geometry">
            <mxPoint x="670" y="430" as="sourcePoint" />
          </mxGeometry>
        </mxCell>
        <mxCell id="MYHG3JWobE4DRymCTWOl-44" value="[Товар есть в наличии]" style="edgeLabel;html=1;align=center;verticalAlign=middle;resizable=0;points=[];" parent="MYHG3JWobE4DRymCTWOl-43" vertex="1" connectable="0">
          <mxGeometry x="-0.2517" y="1" relative="1" as="geometry">
            <mxPoint x="16" y="-9" as="offset" />
          </mxGeometry>
        </mxCell>
        <mxCell id="MYHG3JWobE4DRymCTWOl-11" value="Обработка запроса на добавление" style="rounded=1;whiteSpace=wrap;html=1;arcSize=40;fontColor=#000000;fillColor=#ffffc0;strokeColor=#ff0000;" parent="1" vertex="1">
          <mxGeometry x="480" y="410" width="120" height="40" as="geometry" />
        </mxCell>
        <mxCell id="MYHG3JWobE4DRymCTWOl-12" value="Завершение сессии" style="rounded=1;whiteSpace=wrap;html=1;arcSize=40;fontColor=#000000;fillColor=#ffffc0;strokeColor=#ff0000;" parent="1" vertex="1">
          <mxGeometry x="205" y="650" width="120" height="40" as="geometry" />
        </mxCell>
        <mxCell id="MYHG3JWobE4DRymCTWOl-15" style="edgeStyle=orthogonalEdgeStyle;rounded=0;orthogonalLoop=1;jettySize=auto;html=1;exitX=0.5;exitY=1;exitDx=0;exitDy=0;" parent="1" source="MYHG3JWobE4DRymCTWOl-12" target="MYHG3JWobE4DRymCTWOl-1" edge="1">
          <mxGeometry relative="1" as="geometry">
            <mxPoint x="265" y="760" as="sourcePoint" />
          </mxGeometry>
        </mxCell>
        <mxCell id="MYHG3JWobE4DRymCTWOl-16" value="Завершить сессию" style="edgeLabel;html=1;align=center;verticalAlign=middle;resizable=0;points=[];" parent="MYHG3JWobE4DRymCTWOl-15" vertex="1" connectable="0">
          <mxGeometry x="-0.2874" y="-2" relative="1" as="geometry">
            <mxPoint x="2" y="-119" as="offset" />
          </mxGeometry>
        </mxCell>
        <mxCell id="MYHG3JWobE4DRymCTWOl-22" style="edgeStyle=orthogonalEdgeStyle;rounded=0;orthogonalLoop=1;jettySize=auto;html=1;exitX=0;exitY=0.5;exitDx=0;exitDy=0;entryX=0;entryY=0.5;entryDx=0;entryDy=0;" parent="1" source="MYHG3JWobE4DRymCTWOl-17" target="MYHG3JWobE4DRymCTWOl-5" edge="1">
          <mxGeometry relative="1" as="geometry">
            <Array as="points">
              <mxPoint x="60" y="250" />
              <mxPoint x="60" y="150" />
            </Array>
          </mxGeometry>
        </mxCell>
        <mxCell id="MYHG3JWobE4DRymCTWOl-23" value="[Данные введены не верно]" style="edgeLabel;html=1;align=center;verticalAlign=middle;resizable=0;points=[];" parent="MYHG3JWobE4DRymCTWOl-22" vertex="1" connectable="0">
          <mxGeometry x="0.0694" y="2" relative="1" as="geometry">
            <mxPoint x="72" y="75" as="offset" />
          </mxGeometry>
        </mxCell>
        <mxCell id="MYHG3JWobE4DRymCTWOl-25" style="edgeStyle=orthogonalEdgeStyle;rounded=0;orthogonalLoop=1;jettySize=auto;html=1;exitX=0.5;exitY=1;exitDx=0;exitDy=0;entryX=0.5;entryY=0;entryDx=0;entryDy=0;" parent="1" source="MYHG3JWobE4DRymCTWOl-17" target="MYHG3JWobE4DRymCTWOl-9" edge="1">
          <mxGeometry relative="1" as="geometry">
            <mxPoint x="265" y="320.0000000000001" as="targetPoint" />
          </mxGeometry>
        </mxCell>
        <mxCell id="MYHG3JWobE4DRymCTWOl-27" value="Начать сессию" style="edgeLabel;html=1;align=center;verticalAlign=middle;resizable=0;points=[];" parent="MYHG3JWobE4DRymCTWOl-25" vertex="1" connectable="0">
          <mxGeometry x="0.0514" y="-1" relative="1" as="geometry">
            <mxPoint x="1" y="-54" as="offset" />
          </mxGeometry>
        </mxCell>
        <mxCell id="MYHG3JWobE4DRymCTWOl-17" value="Проверка данных авторизации" style="rounded=1;whiteSpace=wrap;html=1;arcSize=40;fontColor=#000000;fillColor=#ffffc0;strokeColor=#ff0000;" parent="1" vertex="1">
          <mxGeometry x="205" y="230" width="120" height="40" as="geometry" />
        </mxCell>
        <mxCell id="MYHG3JWobE4DRymCTWOl-32" value="Удалить товар из корзины" style="edgeLabel;html=1;align=center;verticalAlign=middle;resizable=0;points=[];" parent="1" vertex="1" connectable="0">
          <mxGeometry x="389.9982758620691" y="490" as="geometry" />
        </mxCell>
        <mxCell id="MYHG3JWobE4DRymCTWOl-37" style="edgeStyle=orthogonalEdgeStyle;rounded=0;orthogonalLoop=1;jettySize=auto;html=1;exitX=0.5;exitY=0;exitDx=0;exitDy=0;entryX=0.625;entryY=0.003;entryDx=0;entryDy=0;entryPerimeter=0;" parent="1" source="MYHG3JWobE4DRymCTWOl-7" target="MYHG3JWobE4DRymCTWOl-9" edge="1">
          <mxGeometry relative="1" as="geometry">
            <Array as="points">
              <mxPoint x="910" y="340" />
              <mxPoint x="280" y="340" />
            </Array>
          </mxGeometry>
        </mxCell>
        <mxCell id="MYHG3JWobE4DRymCTWOl-38" style="edgeStyle=orthogonalEdgeStyle;rounded=0;orthogonalLoop=1;jettySize=auto;html=1;exitX=0.5;exitY=1;exitDx=0;exitDy=0;entryX=0.642;entryY=1.003;entryDx=0;entryDy=0;entryPerimeter=0;" parent="1" source="MYHG3JWobE4DRymCTWOl-8" target="MYHG3JWobE4DRymCTWOl-9" edge="1">
          <mxGeometry relative="1" as="geometry">
            <Array as="points">
              <mxPoint x="910" y="580" />
              <mxPoint x="282" y="580" />
            </Array>
          </mxGeometry>
        </mxCell>
        <mxCell id="MYHG3JWobE4DRymCTWOl-41" value="[Такого товара нет в системе]" style="edgeLabel;html=1;align=center;verticalAlign=middle;resizable=0;points=[];" parent="1" vertex="1" connectable="0">
          <mxGeometry x="400.003478002356" y="529.9999999999999" as="geometry" />
        </mxCell>
        <mxCell id="MYHG3JWobE4DRymCTWOl-47" value="" style="ellipse;html=1;shape=endState;fillColor=#000000;strokeColor=#ff0000;" parent="1" vertex="1">
          <mxGeometry x="1750" y="800" width="30" height="30" as="geometry" />
        </mxCell>
        <mxCell id="MYHG3JWobE4DRymCTWOl-48" value="" style="ellipse;html=1;shape=startState;fillColor=#000000;strokeColor=#ff0000;" parent="1" vertex="1">
          <mxGeometry x="1750" y="35" width="30" height="30" as="geometry" />
        </mxCell>
        <mxCell id="MYHG3JWobE4DRymCTWOl-49" value="" style="edgeStyle=orthogonalEdgeStyle;html=1;verticalAlign=bottom;endArrow=open;endSize=8;strokeColor=#ff0000;rounded=0;" parent="1" source="MYHG3JWobE4DRymCTWOl-48" edge="1">
          <mxGeometry relative="1" as="geometry">
            <mxPoint x="1765" y="125" as="targetPoint" />
          </mxGeometry>
        </mxCell>
        <mxCell id="MYHG3JWobE4DRymCTWOl-50" style="edgeStyle=orthogonalEdgeStyle;rounded=0;orthogonalLoop=1;jettySize=auto;html=1;exitX=0.5;exitY=1;exitDx=0;exitDy=0;" parent="1" source="MYHG3JWobE4DRymCTWOl-52" target="MYHG3JWobE4DRymCTWOl-76" edge="1">
          <mxGeometry relative="1" as="geometry" />
        </mxCell>
        <mxCell id="MYHG3JWobE4DRymCTWOl-51" value="Авторизация" style="edgeLabel;html=1;align=center;verticalAlign=middle;resizable=0;points=[];" parent="MYHG3JWobE4DRymCTWOl-50" vertex="1" connectable="0">
          <mxGeometry x="-0.1678" relative="1" as="geometry">
            <mxPoint as="offset" />
          </mxGeometry>
        </mxCell>
        <mxCell id="MYHG3JWobE4DRymCTWOl-52" value="Ожидание создания сессии" style="rounded=1;whiteSpace=wrap;html=1;arcSize=40;fontColor=#000000;fillColor=#ffffc0;strokeColor=#ff0000;" parent="1" vertex="1">
          <mxGeometry x="1705" y="125" width="120" height="40" as="geometry" />
        </mxCell>
        <mxCell id="MYHG3JWobE4DRymCTWOl-53" value="Пользователь добавлен" style="rounded=1;whiteSpace=wrap;html=1;arcSize=40;fontColor=#000000;fillColor=#ffffc0;strokeColor=#ff0000;" parent="1" vertex="1">
          <mxGeometry x="2350" y="405" width="120" height="40" as="geometry" />
        </mxCell>
        <mxCell id="MYHG3JWobE4DRymCTWOl-54" value="Пользователь удален" style="rounded=1;whiteSpace=wrap;html=1;arcSize=40;fontColor=#000000;fillColor=#ffffc0;strokeColor=#ff0000;" parent="1" vertex="1">
          <mxGeometry x="2350" y="475" width="120" height="40" as="geometry" />
        </mxCell>
        <mxCell id="MYHG3JWobE4DRymCTWOl-55" style="edgeStyle=orthogonalEdgeStyle;rounded=0;orthogonalLoop=1;jettySize=auto;html=1;exitX=1;exitY=0.5;exitDx=0;exitDy=0;" parent="1" source="MYHG3JWobE4DRymCTWOl-59" edge="1">
          <mxGeometry relative="1" as="geometry">
            <mxPoint x="1980" y="425" as="targetPoint" />
          </mxGeometry>
        </mxCell>
        <mxCell id="MYHG3JWobE4DRymCTWOl-56" value="Заблокировать пользователя" style="edgeLabel;html=1;align=center;verticalAlign=middle;resizable=0;points=[];" parent="MYHG3JWobE4DRymCTWOl-55" vertex="1" connectable="0">
          <mxGeometry x="-0.0631" y="1" relative="1" as="geometry">
            <mxPoint y="-9" as="offset" />
          </mxGeometry>
        </mxCell>
        <mxCell id="MYHG3JWobE4DRymCTWOl-57" style="edgeStyle=orthogonalEdgeStyle;rounded=0;orthogonalLoop=1;jettySize=auto;html=1;exitX=1;exitY=0.5;exitDx=0;exitDy=0;entryX=0;entryY=0.5;entryDx=0;entryDy=0;" parent="1" source="MYHG3JWobE4DRymCTWOl-59" target="MYHG3JWobE4DRymCTWOl-63" edge="1">
          <mxGeometry relative="1" as="geometry">
            <mxPoint x="1960" y="495" as="targetPoint" />
            <Array as="points">
              <mxPoint x="1825" y="503" />
            </Array>
          </mxGeometry>
        </mxCell>
        <mxCell id="MYHG3JWobE4DRymCTWOl-58" style="edgeStyle=orthogonalEdgeStyle;rounded=0;orthogonalLoop=1;jettySize=auto;html=1;exitX=0.5;exitY=1;exitDx=0;exitDy=0;" parent="1" source="MYHG3JWobE4DRymCTWOl-59" target="MYHG3JWobE4DRymCTWOl-69" edge="1">
          <mxGeometry relative="1" as="geometry" />
        </mxCell>
        <mxCell id="gf1wdRG9GtFfKNrij7ZL-4" style="edgeStyle=orthogonalEdgeStyle;rounded=0;orthogonalLoop=1;jettySize=auto;html=1;exitX=0;exitY=0.5;exitDx=0;exitDy=0;entryX=1;entryY=0.5;entryDx=0;entryDy=0;" parent="1" source="MYHG3JWobE4DRymCTWOl-59" target="gf1wdRG9GtFfKNrij7ZL-2" edge="1">
          <mxGeometry relative="1" as="geometry" />
        </mxCell>
        <mxCell id="gf1wdRG9GtFfKNrij7ZL-5" value="Одобрить возврат" style="edgeLabel;html=1;align=center;verticalAlign=middle;resizable=0;points=[];" parent="gf1wdRG9GtFfKNrij7ZL-4" vertex="1" connectable="0">
          <mxGeometry x="-0.0769" y="-5" relative="1" as="geometry">
            <mxPoint as="offset" />
          </mxGeometry>
        </mxCell>
        <mxCell id="gf1wdRG9GtFfKNrij7ZL-6" style="edgeStyle=orthogonalEdgeStyle;rounded=0;orthogonalLoop=1;jettySize=auto;html=1;exitX=0;exitY=0.5;exitDx=0;exitDy=0;entryX=1;entryY=0.5;entryDx=0;entryDy=0;" parent="1" source="MYHG3JWobE4DRymCTWOl-59" target="gf1wdRG9GtFfKNrij7ZL-3" edge="1">
          <mxGeometry relative="1" as="geometry">
            <Array as="points">
              <mxPoint x="1705" y="495" />
            </Array>
          </mxGeometry>
        </mxCell>
        <mxCell id="gf1wdRG9GtFfKNrij7ZL-7" value="Отказать в возврате" style="edgeLabel;html=1;align=center;verticalAlign=middle;resizable=0;points=[];" parent="gf1wdRG9GtFfKNrij7ZL-6" vertex="1" connectable="0">
          <mxGeometry x="0.4396" y="-2" relative="1" as="geometry">
            <mxPoint as="offset" />
          </mxGeometry>
        </mxCell>
        <mxCell id="MYHG3JWobE4DRymCTWOl-59" value="Ожидание выбора действия" style="rounded=1;whiteSpace=wrap;html=1;arcSize=40;fontColor=#000000;fillColor=#ffffc0;strokeColor=#ff0000;" parent="1" vertex="1">
          <mxGeometry x="1705" y="405" width="120" height="40" as="geometry" />
        </mxCell>
        <mxCell id="MYHG3JWobE4DRymCTWOl-60" style="edgeStyle=orthogonalEdgeStyle;rounded=0;orthogonalLoop=1;jettySize=auto;html=1;exitX=0.5;exitY=1;exitDx=0;exitDy=0;entryX=0.75;entryY=1;entryDx=0;entryDy=0;" parent="1" source="MYHG3JWobE4DRymCTWOl-63" target="MYHG3JWobE4DRymCTWOl-59" edge="1">
          <mxGeometry relative="1" as="geometry">
            <Array as="points">
              <mxPoint x="2040" y="525" />
              <mxPoint x="1795" y="525" />
            </Array>
          </mxGeometry>
        </mxCell>
        <mxCell id="MYHG3JWobE4DRymCTWOl-61" style="edgeStyle=orthogonalEdgeStyle;rounded=0;orthogonalLoop=1;jettySize=auto;html=1;exitX=1;exitY=0.5;exitDx=0;exitDy=0;entryX=0;entryY=0.5;entryDx=0;entryDy=0;" parent="1" source="MYHG3JWobE4DRymCTWOl-63" target="MYHG3JWobE4DRymCTWOl-54" edge="1">
          <mxGeometry relative="1" as="geometry">
            <Array as="points">
              <mxPoint x="2350" y="502" />
            </Array>
          </mxGeometry>
        </mxCell>
        <mxCell id="MYHG3JWobE4DRymCTWOl-62" value="[Пользователь запросил удаление ]" style="edgeLabel;html=1;align=center;verticalAlign=middle;resizable=0;points=[];" parent="MYHG3JWobE4DRymCTWOl-61" vertex="1" connectable="0">
          <mxGeometry x="-0.2813" y="1" relative="1" as="geometry">
            <mxPoint x="20" y="-9" as="offset" />
          </mxGeometry>
        </mxCell>
        <mxCell id="MYHG3JWobE4DRymCTWOl-63" value="Обработка запроса на удаление пользоваетля из системы" style="rounded=1;whiteSpace=wrap;html=1;arcSize=40;fontColor=#000000;fillColor=#ffffc0;strokeColor=#ff0000;" parent="1" vertex="1">
          <mxGeometry x="2000" y="475" width="120" height="55" as="geometry" />
        </mxCell>
        <mxCell id="MYHG3JWobE4DRymCTWOl-64" style="edgeStyle=orthogonalEdgeStyle;rounded=0;orthogonalLoop=1;jettySize=auto;html=1;exitX=0.5;exitY=0;exitDx=0;exitDy=0;entryX=0.75;entryY=0;entryDx=0;entryDy=0;" parent="1" source="MYHG3JWobE4DRymCTWOl-68" target="MYHG3JWobE4DRymCTWOl-59" edge="1">
          <mxGeometry relative="1" as="geometry" />
        </mxCell>
        <mxCell id="MYHG3JWobE4DRymCTWOl-65" value="[Пользователь не прошел проверку на наличие нарушений]" style="edgeLabel;html=1;align=center;verticalAlign=middle;resizable=0;points=[];" parent="MYHG3JWobE4DRymCTWOl-64" vertex="1" connectable="0">
          <mxGeometry x="0.0939" y="-2" relative="1" as="geometry">
            <mxPoint as="offset" />
          </mxGeometry>
        </mxCell>
        <mxCell id="MYHG3JWobE4DRymCTWOl-66" style="edgeStyle=orthogonalEdgeStyle;rounded=0;orthogonalLoop=1;jettySize=auto;html=1;entryX=0;entryY=0.5;entryDx=0;entryDy=0;exitX=1;exitY=0.5;exitDx=0;exitDy=0;" parent="1" source="MYHG3JWobE4DRymCTWOl-68" target="MYHG3JWobE4DRymCTWOl-53" edge="1">
          <mxGeometry relative="1" as="geometry">
            <mxPoint x="2170" y="425" as="sourcePoint" />
            <Array as="points">
              <mxPoint x="2350" y="430" />
            </Array>
          </mxGeometry>
        </mxCell>
        <mxCell id="MYHG3JWobE4DRymCTWOl-67" value="[Пользователя нарушил правила]" style="edgeLabel;html=1;align=center;verticalAlign=middle;resizable=0;points=[];" parent="MYHG3JWobE4DRymCTWOl-66" vertex="1" connectable="0">
          <mxGeometry x="-0.2517" y="1" relative="1" as="geometry">
            <mxPoint x="16" y="-9" as="offset" />
          </mxGeometry>
        </mxCell>
        <mxCell id="MYHG3JWobE4DRymCTWOl-68" value="Обработка запроса на блокировку пользователя в системе" style="rounded=1;whiteSpace=wrap;html=1;arcSize=40;fontColor=#000000;fillColor=#ffffc0;strokeColor=#ff0000;" parent="1" vertex="1">
          <mxGeometry x="1980" y="397.5" width="120" height="65" as="geometry" />
        </mxCell>
        <mxCell id="MYHG3JWobE4DRymCTWOl-69" value="&lt;div&gt;Завершение сессии&lt;/div&gt;" style="rounded=1;whiteSpace=wrap;html=1;arcSize=40;fontColor=#000000;fillColor=#ffffc0;strokeColor=#ff0000;" parent="1" vertex="1">
          <mxGeometry x="1705" y="645" width="120" height="40" as="geometry" />
        </mxCell>
        <mxCell id="MYHG3JWobE4DRymCTWOl-70" style="edgeStyle=orthogonalEdgeStyle;rounded=0;orthogonalLoop=1;jettySize=auto;html=1;exitX=0.5;exitY=1;exitDx=0;exitDy=0;" parent="1" source="MYHG3JWobE4DRymCTWOl-69" target="MYHG3JWobE4DRymCTWOl-47" edge="1">
          <mxGeometry relative="1" as="geometry">
            <mxPoint x="1765" y="755" as="sourcePoint" />
          </mxGeometry>
        </mxCell>
        <mxCell id="MYHG3JWobE4DRymCTWOl-71" value="Завершить сессию" style="edgeLabel;html=1;align=center;verticalAlign=middle;resizable=0;points=[];" parent="MYHG3JWobE4DRymCTWOl-70" vertex="1" connectable="0">
          <mxGeometry x="-0.2874" y="-2" relative="1" as="geometry">
            <mxPoint x="2" y="-114" as="offset" />
          </mxGeometry>
        </mxCell>
        <mxCell id="MYHG3JWobE4DRymCTWOl-72" style="edgeStyle=orthogonalEdgeStyle;rounded=0;orthogonalLoop=1;jettySize=auto;html=1;exitX=0;exitY=0.5;exitDx=0;exitDy=0;entryX=0;entryY=0.5;entryDx=0;entryDy=0;" parent="1" source="MYHG3JWobE4DRymCTWOl-76" target="MYHG3JWobE4DRymCTWOl-52" edge="1">
          <mxGeometry relative="1" as="geometry">
            <Array as="points">
              <mxPoint x="1560" y="245" />
              <mxPoint x="1560" y="145" />
            </Array>
          </mxGeometry>
        </mxCell>
        <mxCell id="MYHG3JWobE4DRymCTWOl-73" value="[Данные введены не верно]" style="edgeLabel;html=1;align=center;verticalAlign=middle;resizable=0;points=[];" parent="MYHG3JWobE4DRymCTWOl-72" vertex="1" connectable="0">
          <mxGeometry x="0.0694" y="2" relative="1" as="geometry">
            <mxPoint x="72" y="75" as="offset" />
          </mxGeometry>
        </mxCell>
        <mxCell id="MYHG3JWobE4DRymCTWOl-74" style="edgeStyle=orthogonalEdgeStyle;rounded=0;orthogonalLoop=1;jettySize=auto;html=1;exitX=0.5;exitY=1;exitDx=0;exitDy=0;entryX=0.5;entryY=0;entryDx=0;entryDy=0;" parent="1" source="MYHG3JWobE4DRymCTWOl-76" target="MYHG3JWobE4DRymCTWOl-59" edge="1">
          <mxGeometry relative="1" as="geometry">
            <mxPoint x="1765" y="315" as="targetPoint" />
          </mxGeometry>
        </mxCell>
        <mxCell id="gf1wdRG9GtFfKNrij7ZL-1" value="Начать сессию" style="edgeLabel;html=1;align=center;verticalAlign=middle;resizable=0;points=[];" parent="MYHG3JWobE4DRymCTWOl-74" vertex="1" connectable="0">
          <mxGeometry x="-0.2165" relative="1" as="geometry">
            <mxPoint y="1" as="offset" />
          </mxGeometry>
        </mxCell>
        <mxCell id="MYHG3JWobE4DRymCTWOl-76" value="Проверка данных авторизации" style="rounded=1;whiteSpace=wrap;html=1;arcSize=40;fontColor=#000000;fillColor=#ffffc0;strokeColor=#ff0000;" parent="1" vertex="1">
          <mxGeometry x="1705" y="225" width="120" height="40" as="geometry" />
        </mxCell>
        <mxCell id="MYHG3JWobE4DRymCTWOl-79" value="Удалить пользователя" style="edgeLabel;html=1;align=center;verticalAlign=middle;resizable=0;points=[];" parent="1" vertex="1" connectable="0">
          <mxGeometry x="1889.998275862069" y="485" as="geometry" />
        </mxCell>
        <mxCell id="MYHG3JWobE4DRymCTWOl-80" style="edgeStyle=orthogonalEdgeStyle;rounded=0;orthogonalLoop=1;jettySize=auto;html=1;exitX=0.5;exitY=0;exitDx=0;exitDy=0;entryX=0.625;entryY=0.003;entryDx=0;entryDy=0;entryPerimeter=0;" parent="1" source="MYHG3JWobE4DRymCTWOl-53" target="MYHG3JWobE4DRymCTWOl-59" edge="1">
          <mxGeometry relative="1" as="geometry">
            <Array as="points">
              <mxPoint x="2410" y="365" />
              <mxPoint x="1780" y="365" />
            </Array>
          </mxGeometry>
        </mxCell>
        <mxCell id="MYHG3JWobE4DRymCTWOl-81" style="edgeStyle=orthogonalEdgeStyle;rounded=0;orthogonalLoop=1;jettySize=auto;html=1;exitX=0.5;exitY=1;exitDx=0;exitDy=0;entryX=0.642;entryY=1.003;entryDx=0;entryDy=0;entryPerimeter=0;" parent="1" source="MYHG3JWobE4DRymCTWOl-54" target="MYHG3JWobE4DRymCTWOl-59" edge="1">
          <mxGeometry relative="1" as="geometry">
            <Array as="points">
              <mxPoint x="2410" y="555" />
              <mxPoint x="1782" y="555" />
            </Array>
          </mxGeometry>
        </mxCell>
        <mxCell id="MYHG3JWobE4DRymCTWOl-82" value="[Пользователя не запрашивал удаление]" style="edgeLabel;html=1;align=center;verticalAlign=middle;resizable=0;points=[];" parent="1" vertex="1" connectable="0">
          <mxGeometry x="1900.0034780023561" y="524.9999999999999" as="geometry" />
        </mxCell>
        <mxCell id="gf1wdRG9GtFfKNrij7ZL-8" style="edgeStyle=orthogonalEdgeStyle;rounded=0;orthogonalLoop=1;jettySize=auto;html=1;exitX=0.5;exitY=0;exitDx=0;exitDy=0;entryX=0.18;entryY=-0.02;entryDx=0;entryDy=0;entryPerimeter=0;" parent="1" source="gf1wdRG9GtFfKNrij7ZL-2" target="MYHG3JWobE4DRymCTWOl-59" edge="1">
          <mxGeometry relative="1" as="geometry" />
        </mxCell>
        <mxCell id="gf1wdRG9GtFfKNrij7ZL-9" value="[Запрос не соответствует требованиям]" style="edgeLabel;html=1;align=center;verticalAlign=middle;resizable=0;points=[];" parent="gf1wdRG9GtFfKNrij7ZL-8" vertex="1" connectable="0">
          <mxGeometry x="-0.0693" y="2" relative="1" as="geometry">
            <mxPoint x="15" y="-3" as="offset" />
          </mxGeometry>
        </mxCell>
        <mxCell id="gf1wdRG9GtFfKNrij7ZL-15" style="edgeStyle=orthogonalEdgeStyle;rounded=0;orthogonalLoop=1;jettySize=auto;html=1;exitX=0;exitY=0.5;exitDx=0;exitDy=0;entryX=1;entryY=0.5;entryDx=0;entryDy=0;" parent="1" source="gf1wdRG9GtFfKNrij7ZL-2" target="gf1wdRG9GtFfKNrij7ZL-13" edge="1">
          <mxGeometry relative="1" as="geometry" />
        </mxCell>
        <mxCell id="gf1wdRG9GtFfKNrij7ZL-2" value="Обработка запроса на одобрение возврата&amp;nbsp;" style="rounded=1;whiteSpace=wrap;html=1;arcSize=40;fontColor=#000000;fillColor=#ffffc0;strokeColor=#ff0000;" parent="1" vertex="1">
          <mxGeometry x="1330" y="405" width="120" height="40" as="geometry" />
        </mxCell>
        <mxCell id="gf1wdRG9GtFfKNrij7ZL-16" style="edgeStyle=orthogonalEdgeStyle;rounded=0;orthogonalLoop=1;jettySize=auto;html=1;exitX=0;exitY=0.5;exitDx=0;exitDy=0;entryX=1;entryY=0.5;entryDx=0;entryDy=0;" parent="1" source="gf1wdRG9GtFfKNrij7ZL-3" target="gf1wdRG9GtFfKNrij7ZL-14" edge="1">
          <mxGeometry relative="1" as="geometry" />
        </mxCell>
        <mxCell id="gf1wdRG9GtFfKNrij7ZL-3" value="Обработка запроса на отказ возврата" style="rounded=1;whiteSpace=wrap;html=1;arcSize=40;fontColor=#000000;fillColor=#ffffc0;strokeColor=#ff0000;" parent="1" vertex="1">
          <mxGeometry x="1330" y="475" width="120" height="40" as="geometry" />
        </mxCell>
        <mxCell id="gf1wdRG9GtFfKNrij7ZL-11" style="edgeStyle=orthogonalEdgeStyle;rounded=0;orthogonalLoop=1;jettySize=auto;html=1;exitX=0.5;exitY=1;exitDx=0;exitDy=0;entryX=0.202;entryY=0.993;entryDx=0;entryDy=0;entryPerimeter=0;" parent="1" source="gf1wdRG9GtFfKNrij7ZL-3" target="MYHG3JWobE4DRymCTWOl-59" edge="1">
          <mxGeometry relative="1" as="geometry" />
        </mxCell>
        <mxCell id="YZxg4SMlGtO2Pgm0hKt_-3" value="[Запрос соответствует требованиям]" style="edgeLabel;html=1;align=center;verticalAlign=middle;resizable=0;points=[];" vertex="1" connectable="0" parent="gf1wdRG9GtFfKNrij7ZL-11">
          <mxGeometry x="-0.072" y="-3" relative="1" as="geometry">
            <mxPoint as="offset" />
          </mxGeometry>
        </mxCell>
        <mxCell id="gf1wdRG9GtFfKNrij7ZL-17" style="edgeStyle=orthogonalEdgeStyle;rounded=0;orthogonalLoop=1;jettySize=auto;html=1;exitX=0.5;exitY=0;exitDx=0;exitDy=0;entryX=0.25;entryY=0;entryDx=0;entryDy=0;" parent="1" source="gf1wdRG9GtFfKNrij7ZL-13" target="MYHG3JWobE4DRymCTWOl-59" edge="1">
          <mxGeometry relative="1" as="geometry">
            <Array as="points">
              <mxPoint x="1220" y="370" />
              <mxPoint x="1740" y="370" />
              <mxPoint x="1740" y="405" />
            </Array>
          </mxGeometry>
        </mxCell>
        <mxCell id="gf1wdRG9GtFfKNrij7ZL-13" value="Возврат одобрен" style="rounded=1;whiteSpace=wrap;html=1;arcSize=40;fontColor=#000000;fillColor=#ffffc0;strokeColor=#ff0000;" parent="1" vertex="1">
          <mxGeometry x="1160" y="405" width="120" height="40" as="geometry" />
        </mxCell>
        <mxCell id="gf1wdRG9GtFfKNrij7ZL-18" style="edgeStyle=orthogonalEdgeStyle;rounded=0;orthogonalLoop=1;jettySize=auto;html=1;exitX=0.5;exitY=1;exitDx=0;exitDy=0;entryX=0.25;entryY=1;entryDx=0;entryDy=0;" parent="1" edge="1">
          <mxGeometry relative="1" as="geometry">
            <Array as="points">
              <mxPoint x="1230.03" y="547.5" />
              <mxPoint x="1745.03" y="547.5" />
            </Array>
            <mxPoint x="1230.03" y="512.5" as="sourcePoint" />
            <mxPoint x="1745.03" y="442.5" as="targetPoint" />
          </mxGeometry>
        </mxCell>
        <mxCell id="gf1wdRG9GtFfKNrij7ZL-14" value="Возврат не одобрен" style="rounded=1;whiteSpace=wrap;html=1;arcSize=40;fontColor=#000000;fillColor=#ffffc0;strokeColor=#ff0000;" parent="1" vertex="1">
          <mxGeometry x="1160" y="475" width="120" height="40" as="geometry" />
        </mxCell>
      </root>
    </mxGraphModel>
  </diagram>
</mxfile>
